# xmcd
#
# Track frame offsets:
#   750
#   17010
#   34771
#   53486
#   71386
#   88430
#   104363
#   128171
#   148510
#   167403
#   184141
#   200876
#   221805
#   235967
#   254496
#   272457
#
# Disc length: 3847 seconds
#
# Revision: 0
# Processed by: cddbd v1.5.2PL0 Copyright (c) Steve Scherf et al.
# Submitted via: GXTranscoder 2.24.2980
#
DISCID=e90efd10
DTITLE=Vicky Leandros - singt Mikis Theodorakis
DYEAR=1900
DGENRE=qsdqd
TTITLE0=Zauber einer Nacht (Nichta Magika)
TTITLE1=
TTITLE2=
TTITLE3=
TTITLE4=
TTITLE5=
TTITLE6=
TTITLE7=
TTITLE8=
TTITLE9=
TTITLE10=
TTITLE11=
TTITLE12=
TTITLE13=
TTITLE14=
TTITLE15=
EXTD=
EXTT0=
EXTT1=
EXTT2=
EXTT3=
EXTT4=
EXTT5=
EXTT6=
EXTT7=
EXTT8=
EXTT9=
EXTT10=
EXTT11=
EXTT12=
EXTT13=
EXTT14=
EXTT15=
PLAYORDER=
